<svg width="0" height="0" style="position:absolute"><symbol viewBox="0 0 70 70" id="armchair" xmlns="http://www.w3.org/2000/svg"><path d="M27.667 12.538h-.944v-.944a1.026 1.026 0 10-2.052 0v.944h-.944a1.026 1.026 0 000 2.052h.944v.944a1.026 1.026 0 102.052 0v-.944h.944a1.026 1.026 0 100-2.052zm18.605 0h-.944v-.944a1.026 1.026 0 00-2.052 0v.944h-.945a1.026 1.026 0 100 2.052h.945v.944a1.026 1.026 0 102.052 0v-.944h.944a1.026 1.026 0 100-2.052zM27.667 26.63h-.944v-.945a1.026 1.026 0 10-2.052 0v.945h-.944a1.026 1.026 0 000 2.051h.944v.945a1.026 1.026 0 102.052 0v-.945h.944a1.026 1.026 0 100-2.052zm18.605 0h-.944v-.945a1.026 1.026 0 10-2.052 0v.945h-.945a1.026 1.026 0 000 2.051h.945v.945a1.026 1.026 0 102.052 0v-.945h.944a1.026 1.026 0 100-2.052z"/><path d="M63.456 29.052H49.879c-1.16 0-2.103.943-2.103 2.103v2.778c0 1.16.943 2.103 2.103 2.103h.197v4.644a5.338 5.338 0 00-3.313-1.15H22.968c-1.25 0-2.401.43-3.314 1.15v-4.654h.467c1.16 0 2.103-.944 2.103-2.103v-2.778c0-1.16-.943-2.103-2.103-2.103H6.544c-1.16 0-2.103.943-2.103 2.103v2.778c0 1.16.943 2.103 2.103 2.103h.467V49.12a4.019 4.019 0 003.663 3.998v2.046a2.95 2.95 0 002.947 2.948h2.351v9.836h-1.469a1.026 1.026 0 100 2.052h10.252a1.026 1.026 0 000-2.052h-1.47v-9.836h23.16v9.836h-1.47a1.026 1.026 0 100 2.052h10.252a1.026 1.026 0 000-2.052h-1.469v-9.836h2.351a2.95 2.95 0 002.947-2.948v-2.046a4.019 4.019 0 003.663-3.998V36.037h.737c1.16 0 2.104-.944 2.104-2.103v-2.778c0-1.16-.944-2.103-2.104-2.103zm-40.489 12.53h23.796a3.318 3.318 0 013.314 3.314v6.187H19.654v-6.187a3.318 3.318 0 013.314-3.314zM6.545 33.974a.052.052 0 01-.051-.051v-2.778c0-.028.023-.051.051-.051h13.577c.028 0 .051.023.051.051v2.778a.052.052 0 01-.051.051H6.544zm4.481 17.109a1.964 1.964 0 01-1.962-1.962V36.026h8.539v15.057h-6.577zm10.209 16.865h-3.21v-9.836h3.21v9.836zm30.472 0h-3.21v-9.836h3.21v9.836zm5.298-12.784a.896.896 0 01-.895.896H13.621a.896.896 0 01-.895-.896v-2.03h44.278v2.03zm3.663-6.043c0 1.081-.88 1.962-1.962 1.962H52.13V36.036h8.538v13.085zm2.84-15.188a.052.052 0 01-.05.051h-13.58a.052.052 0 01-.051-.051v-2.778c0-.028.023-.051.051-.051h13.577c.028 0 .052.023.052.051v2.778zM57.696 8.455C57.696 3.793 53.903 0 49.24 0H20.486c-4.662 0-8.455 3.793-8.455 8.455V25.27a1.026 1.026 0 002.052 0V8.455a6.41 6.41 0 016.403-6.403h28.755a6.411 6.411 0 016.403 6.408l.08 16.814a1.026 1.026 0 001.025 1.02h.005a1.026 1.026 0 001.021-1.03l-.08-16.809z"/></symbol><symbol viewBox="0 0 41 16" id="arrow-next" xmlns="http://www.w3.org/2000/svg"><path d="M40.707 8.707a1 1 0 000-1.414L34.343.929a1 1 0 10-1.414 1.414L38.586 8l-5.657 5.657a1 1 0 001.414 1.414l6.364-6.364zM0 9h40V7H0v2z"/></symbol><symbol viewBox="0 0 41 16" id="arrow-prev" xmlns="http://www.w3.org/2000/svg"><path d="M.293 7.293a1 1 0 000 1.414l6.364 6.364a1 1 0 001.414-1.414L2.414 8l5.657-5.657A1 1 0 006.657.93L.293 7.293zM41 7H1v2h40V7z"/></symbol><symbol viewBox="0 0 15 26" id="fb" xmlns="http://www.w3.org/2000/svg"><path d="M14.435.005L10.837 0C6.795 0 4.183 2.511 4.183 6.399v2.95H.566c-.313 0-.566.237-.566.53v4.275c0 .293.253.53.566.53h3.617V25.47c0 .293.253.53.566.53h4.72c.312 0 .565-.238.565-.53V14.684h4.23c.313 0 .566-.237.566-.53l.001-4.275a.52.52 0 00-.165-.375.586.586 0 00-.4-.155h-4.232V6.848c0-1.202.306-1.812 1.977-1.812l2.424-.001c.312 0 .565-.238.565-.53V.535c0-.292-.253-.529-.565-.53z"/></symbol><symbol viewBox="0 0 200 96" id="gazprom" xmlns="http://www.w3.org/2000/svg"><path d="M61.771 62.765h12.693v4.14h-6.038V96h-6.655V62.765zm20.222 20.758l1.14-16.617h.382l1.14 16.617h-2.662zM74.623 96h6.515l.617-8.826h3.138l.62 8.826h6.512l-3.47-33.235H78.094L74.623 96zm26.931-11.632v6.265c0 .845.654 1.09 1.036 1.09.628 0 1.064-.518 1.064-1.09v-7.736c0-1.036-.191-2.18-2.673-2.18h-2.702v-3.65h2.811c1.882 0 2.564-.436 2.564-2.48v-6.592c0-.572-.436-1.09-1.064-1.09-.382 0-1.036.219-1.036 1.09v5.421h-6.658v-4.712c0-2.316.273-5.94 4.939-5.94h5.511c4.666 0 4.966 3.624 4.966 5.94v5.312c0 3.623-2.538 4.604-4.529 4.522v.327c4.474-.11 4.529 3.323 4.529 4.495v6.701c0 2.343-.3 5.939-4.966 5.939h-5.511c-4.666 0-4.939-3.596-4.939-5.939v-5.693h6.658zm13.124-21.603h15.416V96h-6.657V66.906h-2.101V96h-6.658V62.765zm26.44 18.279V66.906h.873c.709 0 1.228.599 1.228 1.661v10.815c0 1.063-.519 1.662-1.228 1.662h-.873zM134.46 96h6.658V84.695h3.82c4.638 0 4.938-3.596 4.938-5.94v-10.05c0-2.316-.3-5.94-4.938-5.94H134.46V96zm28.541-5.367c0 .572-.437 1.09-1.064 1.09-.382 0-1.037-.245-1.037-1.09V67.995c0-.871.655-1.09 1.037-1.09.627 0 1.064.518 1.064 1.09v22.638zm-8.759-.572c0 2.343.301 5.939 4.939 5.939h5.539c4.638 0 4.938-3.596 4.938-5.939V68.704c0-2.316-.3-5.94-4.938-5.94h-5.539c-4.638 0-4.939 3.624-4.939 5.94V90.06zm37.081-27.296H200V96h-6.658V75.16h-.245L189.659 96h-5.321l-3.41-20.84h-.246V96h-6.657V62.765h8.649l4.338 23.373 4.311-23.373zM53.147 17.326C51.109 8.418 46 1.17 45.297 0c-1.113 1.662-5.187 8.064-7.258 15.146-2.262 7.928-2.595 14.956-1.814 21.848.775 6.92 3.702 14.03 3.702 14.03 1.556 3.705 3.886 7.71 5.403 9.67 2.223-2.887 7.334-11.495 8.927-22.719.887-6.266.925-11.741-1.11-20.65zm-7.85 41.135c-1.001-1.88-2.557-5.448-2.704-11.006-.038-5.34 2.11-9.943 2.737-10.896.559.953 2.409 4.958 2.63 10.433.15 5.34-1.629 9.562-2.663 11.469zm7.258-26.016c-.077 3.405-.483 7.001-1.002 9.153.186-3.705-.259-8.908-1.11-12.994-.851-4.06-3.26-10.87-5.184-14.002-1.776 2.996-3.965 8.88-5.11 13.975-1.152 5.094-1.185 11.278-1.185 13.13-.306-1.553-1.07-7.137-.854-12.722.18-4.604 1.26-9.37 1.853-11.55 2.259-7.274 4.816-11.932 5.296-12.668.48.736 3.7 6.484 5.37 12.504 1.661 6.02 1.997 11.796 1.926 15.174z"/><path d="M48.753 62.765H33.258v10.38c.013 0 .024-.028.038-.028 3.65-3.65 9.571-3.65 13.225 0 3.65 3.623 3.65 9.534 0 13.185-.017.027-.033.027-.05.054-.018 0-.037.028-.054.055a18.675 18.675 0 01-13.16 5.394c-4.78 0-9.56-1.798-13.205-5.449-6.429-6.401-7.19-16.345-2.29-23.591.66-.98 1.422-1.907 2.29-2.779 3.645-3.65 8.425-5.448 13.206-5.448V29.585C14.889 29.584 0 44.43 0 62.764s14.89 33.208 33.258 33.208c9.577 0 18.204-4.06 24.272-10.516V62.765h-8.777z"/></symbol><symbol viewBox="0 0 26 26" id="insta" xmlns="http://www.w3.org/2000/svg"><path d="M17.875 0h-9.75A8.126 8.126 0 000 8.125v9.75A8.126 8.126 0 008.125 26h9.75A8.126 8.126 0 0026 17.875v-9.75A8.126 8.126 0 0017.875 0zm5.688 17.875a5.694 5.694 0 01-5.688 5.688h-9.75a5.694 5.694 0 01-5.688-5.688v-9.75a5.694 5.694 0 015.688-5.688h9.75a5.694 5.694 0 015.688 5.688v9.75z"/><path d="M13 6.5a6.5 6.5 0 100 13 6.5 6.5 0 000-13zm0 10.563A4.068 4.068 0 018.937 13 4.067 4.067 0 0113 8.937 4.067 4.067 0 0117.063 13 4.068 4.068 0 0113 17.063zm6.985-10.184a.866.866 0 100-1.732.866.866 0 000 1.732z"/></symbol><symbol viewBox="0 0 30 30" id="search" xmlns="http://www.w3.org/2000/svg"><path d="M29.817 28.05l-8.715-8.715a11.814 11.814 0 002.648-7.46C23.75 5.327 18.423 0 11.875 0S0 5.327 0 11.875 5.327 23.75 11.875 23.75c2.825 0 5.419-.995 7.46-2.648l8.714 8.715c.245.244.64.244.884 0l.884-.884a.625.625 0 000-.884zm-17.942-6.8c-5.17 0-9.375-4.205-9.375-9.375S6.705 2.5 11.875 2.5s9.375 4.205 9.375 9.375-4.205 9.375-9.375 9.375z"/></symbol><symbol viewBox="0 0 26 24" id="star" xmlns="http://www.w3.org/2000/svg"><path d="M13 0L8.982 7.903 0 9.163l6.5 6.154L4.963 24 13 19.903 21.037 24 19.5 15.317 26 9.171l-8.982-1.268L13 0z"/></symbol><symbol viewBox="0 0 70 66" id="theater" xmlns="http://www.w3.org/2000/svg"><path d="M68.927 31.641V1.936c0-.567-.46-1.027-1.027-1.027H2.1c-.567 0-1.027.46-1.027 1.027V31.64A2.011 2.011 0 000 33.418v2.108c0 .77.436 1.44 1.073 1.777v26.761c0 .567.46 1.027 1.027 1.027h65.8c.567 0 1.027-.46 1.027-1.027V37.303A2.011 2.011 0 0070 35.526v-2.108c0-.77-.436-1.44-1.073-1.777zM66.486 2.963c-.412.604-1.171 1.313-2.373 2.068l-.044.028a17.047 17.047 0 01-.315.19l-.169.099-.138.08-.138.076-.173.096-.032.017c-.148.08-.303.16-.46.241l-.128.065-.185.091-.172.084a23.06 23.06 0 01-.834.385l-.068.03c-.42.184-.866.369-1.342.553-.615.239-1.271.475-1.973.707A57.464 57.464 0 0151.84 9.4a1.029 1.029 0 00-.103.016c-2.045.427-4.197.78-6.397 1.045-.028.004-.055.01-.082.015A87.003 87.003 0 0135 11.077a87.05 87.05 0 01-10.257-.6c-.027-.006-.054-.012-.082-.015a75.834 75.834 0 01-6.397-1.046 1.029 1.029 0 00-.103-.016 57.46 57.46 0 01-6.103-1.627 40.953 40.953 0 01-1.973-.707 33.528 33.528 0 01-1.342-.552l-.068-.031a29.615 29.615 0 01-.666-.304l-.168-.08-.172-.084c-.062-.03-.124-.06-.184-.091l-.128-.065c-.156-.08-.309-.16-.456-.24-.012-.006-.025-.012-.036-.019-.06-.031-.116-.063-.173-.095l-.138-.077-.139-.08a18.083 18.083 0 01-.169-.098l-.1-.06a15.709 15.709 0 01-.214-.131l-.045-.028c-1.202-.755-1.961-1.463-2.372-2.068h62.97zM3.126 5.569c.317.274.68.553 1.092.835 1.09.755 2.545 1.54 4.476 2.325C8.692 15.18 6.81 22.359 5.2 27.32a1.027 1.027 0 101.953.634c1.594-4.911 3.444-11.948 3.584-18.461.22.076.445.153.676.229a58.01 58.01 0 005.326 1.467c-2.17 6.735-5.71 12.287-8.361 15.824a1.027 1.027 0 101.643 1.232c2.774-3.7 6.487-9.532 8.739-16.629 1.414.277 2.87.518 4.356.72-2.175 5.33-6.527 10.82-9.916 14.6a1.027 1.027 0 101.53 1.371c6.318-7.048 9.188-12.33 10.49-15.71 3.174.35 6.463.533 9.779.533s6.605-.183 9.779-.534c2.22 5.775 6.89 11.696 10.499 15.721a1.027 1.027 0 001.53-1.37c-3.393-3.784-7.749-9.277-9.925-14.61a76.495 76.495 0 004.356-.72c2.254 7.104 5.974 12.942 8.753 16.646a1.025 1.025 0 001.437.205c.454-.34.546-.984.205-1.437-2.656-3.541-6.201-9.1-8.374-15.842a58.045 58.045 0 005.326-1.467c.23-.076.455-.153.676-.23.14 6.51 1.988 13.543 3.58 18.45a1.027 1.027 0 001.954-.633c-1.609-4.959-3.488-12.133-3.49-18.581 1.93-.785 3.385-1.57 4.476-2.325.412-.282.775-.561 1.091-.835v25.839h-5.696c-1.109 0-2.01.901-2.01 2.01v2.108c0 .546.22 1.041.574 1.404a150.237 150.237 0 00-2.074 6.832H12.333a148.83 148.83 0 00-2.074-6.832c.355-.363.575-.858.575-1.404v-2.108c0-1.108-.902-2.01-2.01-2.01H3.127V5.568zM2.055 35.482v-2.02H8.78v2.02H2.054zm5.284 27.221a.652.652 0 01-.573.334H3.127V37.536h.984c3.74 12.663 4.947 22.043 3.227 25.167zm5.035.334V57.37c0-1.22.993-2.213 2.214-2.213h5.333c1.22 0 2.213.993 2.213 2.213v5.668h-9.76zm11.814 0V57.37c0-1.22.993-2.213 2.214-2.213h5.333c1.22 0 2.213.993 2.213 2.213v5.668h-9.76zm11.814 0V57.37c0-1.22.994-2.213 2.214-2.213h5.333c1.22 0 2.214.993 2.214 2.213v5.668h-9.76zm21.575 0h-9.76V57.37c0-1.22.993-2.213 2.213-2.213h5.333c1.22 0 2.214.993 2.214 2.213v5.668zm2.054 0V57.37a4.272 4.272 0 00-4.268-4.267H50.03a4.258 4.258 0 00-3.24 1.495 4.258 4.258 0 00-3.24-1.495h-5.334a4.259 4.259 0 00-3.24 1.495 4.259 4.259 0 00-3.241-1.495h-5.333a4.259 4.259 0 00-3.24 1.495 4.259 4.259 0 00-3.241-1.495h-5.333a4.272 4.272 0 00-4.268 4.267v5.668h-.877c2.081-5.26-.893-17.612-3.19-25.501h2.045c.97 2.947 2.24 7.096 3.213 11.31a1.027 1.027 0 102-.462c-.198-.862-.41-1.721-.628-2.568h44.236c-.22.855-.434 1.722-.634 2.593a1.027 1.027 0 102.001.462c.974-4.223 2.246-8.382 3.219-11.335h2.045c-2.298 7.889-5.272 20.24-3.19 25.501h-.93zm7.243 0h-3.638a.652.652 0 01-.573-.334c-1.72-3.124-.513-12.504 3.227-25.167h.984v25.501zm1.073-27.555H61.22v-2.02h6.726v2.02z"/></symbol><symbol viewBox="0 0 26 14" id="vk" xmlns="http://www.w3.org/2000/svg"><path d="M25.862 12.643a1.654 1.654 0 00-.088-.16c-.451-.766-1.313-1.707-2.586-2.823l-.026-.025-.014-.013-.014-.013h-.013c-.578-.52-.943-.869-1.096-1.048-.28-.34-.343-.685-.19-1.035.108-.264.514-.821 1.218-1.673.37-.451.663-.813.88-1.086 1.561-1.959 2.238-3.21 2.03-3.756l-.08-.127c-.054-.077-.194-.147-.42-.211-.226-.064-.514-.075-.866-.032l-3.899.025a.535.535 0 00-.27.007L20.25.71l-.068.032-.053.039a.59.59 0 00-.15.134.868.868 0 00-.134.223 20.36 20.36 0 01-1.45 2.875c-.333.528-.64.986-.92 1.373-.28.388-.514.673-.703.856-.19.183-.361.33-.515.44-.153.112-.27.158-.352.141a10.423 10.423 0 01-.23-.05.87.87 0 01-.305-.314 1.345 1.345 0 01-.155-.498 5.215 5.215 0 01-.048-.518c-.004-.144-.002-.349.007-.613.01-.264.014-.443.014-.536 0-.324.006-.675.02-1.054.014-.38.024-.68.034-.901.009-.222.013-.456.013-.703 0-.247-.016-.44-.047-.581a1.906 1.906 0 00-.142-.409.701.701 0 00-.277-.307 1.618 1.618 0 00-.454-.172C13.858.066 13.25.01 12.508.002 10.83-.015 9.751.087 9.273.309c-.19.093-.361.221-.514.383-.163.187-.185.29-.068.306.541.077.925.26 1.15.55l.082.153c.063.11.126.307.19.588.063.28.103.592.121.932a9.376 9.376 0 010 1.597 17.54 17.54 0 01-.129 1.035c-.04.247-.101.447-.182.6a2.495 2.495 0 01-.163.281.227.227 0 01-.067.064c-.118.043-.24.064-.366.064s-.28-.06-.46-.179a3.185 3.185 0 01-.562-.492 6.595 6.595 0 01-.657-.875 15.013 15.013 0 01-.758-1.328l-.216-.37c-.135-.24-.32-.586-.555-1.042a19.527 19.527 0 01-.623-1.323.85.85 0 00-.325-.408L5.104.806a.945.945 0 00-.217-.108 1.504 1.504 0 00-.311-.083L.866.64C.489.64.23.721.096.883L.04.96a.394.394 0 00-.04.204.97.97 0 00.081.345 41.17 41.17 0 001.767 3.475C2.484 6.1 3.037 7 3.506 7.68c.47.681.948 1.324 1.435 1.929.487.604.81.992.968 1.162.158.17.282.298.372.384l.339.306c.216.205.534.45.954.735.42.285.884.566 1.394.843a7.83 7.83 0 001.78.677 6.503 6.503 0 001.977.211h1.557c.316-.026.555-.12.717-.281l.054-.064c.036-.05.07-.13.101-.236a1.22 1.22 0 00.048-.351c-.01-.367.02-.697.088-.99.067-.294.144-.516.23-.665a1.667 1.667 0 01.521-.562.891.891 0 01.108-.045c.217-.068.472-.002.766.199.293.2.568.447.825.74.258.295.567.624.928.99.36.367.677.64.947.818l.27.154c.182.102.416.196.705.28.288.086.541.107.758.065l3.465-.051c.343 0 .61-.054.799-.16.19-.107.302-.224.338-.351a.934.934 0 00.007-.435 1.534 1.534 0 00-.095-.338z"/></symbol><symbol viewBox="0 0 26 18" id="yt" xmlns="http://www.w3.org/2000/svg"><path d="M20.6 0H5.4C2.418 0 0 2.365 0 5.283v7.434C0 15.635 2.418 18 5.4 18h15.2c2.982 0 5.4-2.365 5.4-5.283V5.283C26 2.365 23.582 0 20.6 0zm-3.652 9.362l-7.11 3.317a.285.285 0 01-.408-.252V5.585c0-.208.225-.343.415-.25l7.11 3.526a.277.277 0 01-.007.5z"/></symbol></svg>